<svg width="42" height="44" viewBox="0 0 42 44" fill="none" xmlns="http://www.w3.org/2000/svg">
<path d="M29.5269 15.2419C29.3447 14.7474 29.0656 14.2985 28.7077 13.9239C28.3497 13.5493 27.9209 13.2575 27.4488 13.0671C26.7986 12.8148 26.112 12.6815 25.4188 12.6729C24.2659 12.6179 23.9203 12.6042 21 12.6042C18.0797 12.6042 17.7341 12.6179 16.5813 12.6729C15.8873 12.6812 15.1999 12.8146 14.5491 13.0671C14.0771 13.258 13.6486 13.5503 13.291 13.9253C12.9335 14.3003 12.6549 14.7495 12.4731 15.2442C12.2323 15.9252 12.1051 16.6446 12.0969 17.3708C12.0444 18.5785 12.0313 18.9406 12.0313 22C12.0313 25.0594 12.0444 25.4215 12.0969 26.6292C12.1048 27.3562 12.2321 28.0763 12.4731 28.7581C12.6554 29.2525 12.9344 29.7015 13.2923 30.0761C13.6503 30.4506 14.0791 30.7425 14.5513 30.9329C15.2014 31.1852 15.888 31.3185 16.5813 31.3271C17.7341 31.3821 18.0797 31.3935 21 31.3935C23.9203 31.3935 24.2659 31.3821 25.4188 31.3248C26.1126 31.3172 26.8 31.1846 27.4509 30.9329C27.9229 30.742 28.3514 30.4497 28.709 30.0747C29.0665 29.6997 29.3452 29.2505 29.5269 28.7558C29.7677 28.0748 29.8949 27.3554 29.9031 26.6292C29.9556 25.4215 29.9666 25.0594 29.9666 22C29.9666 18.9406 29.9556 18.5785 29.9009 17.3708C29.8937 16.644 29.7672 15.9238 29.5269 15.2419ZM21 27.885C19.889 27.885 18.8029 27.5398 17.8791 26.8932C16.9553 26.2465 16.2353 25.3274 15.8101 24.2521C15.3849 23.1767 15.2737 21.9935 15.4904 20.8519C15.7072 19.7103 16.2422 18.6617 17.0278 17.8387C17.8135 17.0156 18.8144 16.4551 19.9041 16.2281C20.9938 16.001 22.1233 16.1175 23.1497 16.563C24.1762 17.0084 25.0535 17.7627 25.6708 18.7305C26.288 19.6982 26.6175 20.8361 26.6175 22C26.6175 23.5608 26.0257 25.0577 24.9722 26.1613C23.9187 27.265 22.4899 27.885 21 27.885ZM26.8384 17.2585C26.5789 17.2585 26.3251 17.1779 26.1093 17.0268C25.8934 16.8757 25.7252 16.661 25.6259 16.4097C25.5265 16.1585 25.5005 15.882 25.5512 15.6153C25.6018 15.3486 25.7268 15.1036 25.9104 14.9113C26.0939 14.719 26.3278 14.588 26.5824 14.535C26.837 14.4819 27.1009 14.5091 27.3407 14.6132C27.5805 14.7173 27.7855 14.8935 27.9297 15.1196C28.074 15.3457 28.1509 15.6116 28.1509 15.8835C28.1509 16.2482 28.0127 16.5979 27.7665 16.8558C27.5204 17.1137 27.1865 17.2585 26.8384 17.2585ZM24.6466 22C24.6466 22.7556 24.4327 23.4942 24.032 24.1224C23.6313 24.7506 23.0618 25.2403 22.3955 25.5294C21.7292 25.8185 20.996 25.8942 20.2886 25.7468C19.5812 25.5994 18.9315 25.2356 18.4215 24.7013C17.9115 24.167 17.5642 23.4863 17.4235 22.7453C17.2828 22.0042 17.355 21.2361 17.631 20.5381C17.907 19.84 18.3744 19.2434 18.9741 18.8236C19.5738 18.4038 20.2788 18.1798 21 18.1798C21.9671 18.1798 22.8947 18.5823 23.5785 19.2987C24.2624 20.0151 24.6466 20.9868 24.6466 22ZM21 0C16.8466 0 12.7865 1.29028 9.33303 3.70767C5.8796 6.12506 3.18798 9.56099 1.59854 13.581C0.00909893 17.6009 -0.406771 22.0244 0.403519 26.292C1.21381 30.5596 3.21386 34.4796 6.15077 37.5563C9.08767 40.6331 12.8295 42.7284 16.9031 43.5773C20.9767 44.4261 25.1991 43.9905 29.0364 42.3253C32.8736 40.6602 36.1534 37.8404 38.4609 34.2225C40.7684 30.6047 42 26.3512 42 22C42 16.1652 39.7875 10.5694 35.8492 6.44365C31.911 2.31785 26.5696 0 21 0V0ZM31.8719 26.7231C31.8534 27.674 31.681 28.6147 31.3622 29.5052C31.0813 30.2662 30.6517 30.9573 30.1009 31.5343C29.5502 32.1113 28.8905 32.5613 28.1641 32.8556C27.3147 33.1894 26.4176 33.3699 25.5106 33.3896C24.3425 33.4446 23.9706 33.4583 21 33.4583C18.0294 33.4583 17.6575 33.4446 16.4894 33.3896C15.5825 33.3699 14.6853 33.1894 13.8359 32.8556C13.1095 32.5613 12.4498 32.1113 11.8991 31.5343C11.3483 30.9573 10.9187 30.2662 10.6378 29.5052C10.3192 28.6154 10.1469 27.6755 10.1281 26.7254C10.0756 25.5017 10.0625 25.1121 10.0625 22C10.0625 18.8879 10.0756 18.4983 10.1281 17.2746C10.1462 16.3246 10.3178 15.3847 10.6356 14.4948C10.9165 13.7331 11.3464 13.0414 11.8975 12.464C12.4486 11.8867 13.1089 11.4364 13.8359 11.1421C14.6854 10.8091 15.5826 10.6293 16.4894 10.6104C17.6575 10.5554 18.0294 10.5417 21 10.5417C23.9706 10.5417 24.3425 10.5554 25.5106 10.6104C26.4174 10.6293 27.3146 10.8091 28.1641 11.1421C28.8907 11.4366 29.5506 11.887 30.1013 12.4644C30.652 13.0418 31.0815 13.7334 31.3622 14.4948C31.6808 15.3846 31.8531 16.3245 31.8719 17.2746C31.9244 18.4983 31.9375 18.8879 31.9375 22C31.9375 25.1121 31.9244 25.5017 31.8719 26.7254V26.7231Z" fill="#B5D3E3"/>
</svg>
